<mxfile host="Electron" agent="Mozilla/5.0 (X11; Linux x86_64) AppleWebKit/537.36 (KHTML, like Gecko) draw.io/27.0.9 Chrome/134.0.6998.205 Electron/35.4.0 Safari/537.36" version="27.0.9">
  <diagram name="Page-1" id="ats_abv7gow42Jio9Yl1">
    <mxGraphModel dx="2000" dy="1363" grid="1" gridSize="10" guides="1" tooltips="1" connect="1" arrows="1" fold="1" page="1" pageScale="1" pageWidth="850" pageHeight="1100" math="0" shadow="0">
      <root>
        <mxCell id="0" />
        <mxCell id="1" parent="0" />
        <mxCell id="fRRCHO6zsXlQDFJkpmqz-2" value="Сотрудник кредитования&lt;div&gt;(бэк-офис)&lt;/div&gt;" style="sketch=0;pointerEvents=1;shadow=0;dashed=0;html=1;strokeColor=none;labelPosition=center;verticalLabelPosition=bottom;verticalAlign=top;outlineConnect=0;align=center;shape=mxgraph.office.users.user;fillColor=#CCCBCB;" parent="1" vertex="1">
          <mxGeometry x="416" y="690" width="46" height="50" as="geometry" />
        </mxCell>
        <mxCell id="fRRCHO6zsXlQDFJkpmqz-3" value="Сотрудник кол-центра" style="sketch=0;pointerEvents=1;shadow=0;dashed=0;html=1;strokeColor=none;labelPosition=center;verticalLabelPosition=bottom;verticalAlign=top;outlineConnect=0;align=center;shape=mxgraph.office.users.user;fillColor=#7FBA42;" parent="1" vertex="1">
          <mxGeometry x="190" y="50" width="46" height="50" as="geometry" />
        </mxCell>
        <mxCell id="fRRCHO6zsXlQDFJkpmqz-5" value="Сотрудник бэк-офиса&lt;div&gt;&lt;br&gt;&lt;/div&gt;" style="sketch=0;pointerEvents=1;shadow=0;dashed=0;html=1;strokeColor=none;labelPosition=center;verticalLabelPosition=bottom;verticalAlign=top;outlineConnect=0;align=center;shape=mxgraph.office.users.user;fillColor=#2072B8;" parent="1" vertex="1">
          <mxGeometry x="416" y="470" width="46" height="50" as="geometry" />
        </mxCell>
        <mxCell id="fRRCHO6zsXlQDFJkpmqz-6" value="Сотрудник офиса" style="sketch=0;pointerEvents=1;shadow=0;dashed=0;html=1;strokeColor=none;labelPosition=center;verticalLabelPosition=bottom;verticalAlign=top;outlineConnect=0;align=center;shape=mxgraph.office.users.user;fillColor=#DA4026;" parent="1" vertex="1">
          <mxGeometry x="416" y="210" width="46" height="50" as="geometry" />
        </mxCell>
        <mxCell id="fRRCHO6zsXlQDFJkpmqz-7" value="&lt;div style=&quot;&quot;&gt;&lt;span&gt;&lt;font style=&quot;font-size: 16px;&quot;&gt;&lt;span style=&quot;box-sizing: inherit; color: rgba(0, 0, 0, 0.85); font-family: &amp;quot;YS Text&amp;quot;, sans-serif; white-space-collapse: preserve-breaks;&quot;&gt;&lt;font style=&quot;&quot;&gt;Система кол-центра&amp;nbsp;&lt;/font&gt;&lt;/span&gt;&lt;/font&gt;&lt;/span&gt;&lt;/div&gt;" style="rounded=1;whiteSpace=wrap;html=1;fillColor=#ffe6cc;strokeColor=#d79b00;align=center;" parent="1" vertex="1">
          <mxGeometry x="470" y="40" width="130" height="80" as="geometry" />
        </mxCell>
        <mxCell id="fRRCHO6zsXlQDFJkpmqz-8" value="&lt;span style=&quot;box-sizing: inherit; color: rgba(0, 0, 0, 0.85); font-family: &amp;quot;YS Text&amp;quot;, sans-serif; font-style: normal; font-variant-ligatures: normal; font-variant-caps: normal; letter-spacing: normal; orphans: 2; text-align: left; text-indent: 0px; text-transform: none; widows: 2; word-spacing: 0px; -webkit-text-stroke-width: 0px; white-space: pre-line; text-decoration-thickness: initial; text-decoration-style: initial; text-decoration-color: initial;&quot;&gt;&lt;font style=&quot;font-size: 16px;&quot;&gt;Автоматизированная банковская система (АБС)&lt;/font&gt;&lt;/span&gt;" style="rounded=1;whiteSpace=wrap;html=1;fillColor=#f8cecc;strokeColor=#b85450;" parent="1" vertex="1">
          <mxGeometry x="780" y="50" width="190" height="850" as="geometry" />
        </mxCell>
        <mxCell id="fRRCHO6zsXlQDFJkpmqz-9" value="&lt;span style=&quot;box-sizing: inherit; color: rgba(0, 0, 0, 0.85); font-family: &amp;quot;YS Text&amp;quot;, sans-serif; font-style: normal; font-variant-ligatures: normal; font-variant-caps: normal; letter-spacing: normal; orphans: 2; text-align: left; text-indent: 0px; text-transform: none; widows: 2; word-spacing: 0px; -webkit-text-stroke-width: 0px; white-space: pre-line; text-decoration-thickness: initial; text-decoration-style: initial; text-decoration-color: initial;&quot;&gt;&lt;font style=&quot;font-size: 16px;&quot;&gt;СМС-шлюз&lt;/font&gt;&lt;/span&gt;" style="rounded=1;whiteSpace=wrap;html=1;fillColor=#d5e8d4;strokeColor=#82b366;" parent="1" vertex="1">
          <mxGeometry x="1250" y="455" width="180" height="80" as="geometry" />
        </mxCell>
        <mxCell id="fRRCHO6zsXlQDFJkpmqz-11" value="&lt;div style=&quot;text-align: left;&quot;&gt;&lt;font style=&quot;font-size: 16px;&quot;&gt;Email&amp;nbsp;&lt;/font&gt;&lt;/div&gt;" style="rounded=1;whiteSpace=wrap;html=1;fillColor=#fff2cc;strokeColor=#d6b656;" parent="1" vertex="1">
          <mxGeometry x="399" y="390" width="80" height="30" as="geometry" />
        </mxCell>
        <mxCell id="fRRCHO6zsXlQDFJkpmqz-12" value="&lt;div style=&quot;text-align: left;&quot;&gt;&lt;span style=&quot;box-sizing: inherit; color: rgba(0, 0, 0, 0.85); font-family: &amp;quot;YS Text&amp;quot;, sans-serif; white-space-collapse: preserve-breaks;&quot;&gt;&lt;font style=&quot;font-size: 16px;&quot;&gt;Сайт&lt;/font&gt;&lt;/span&gt;&lt;/div&gt;" style="rounded=1;whiteSpace=wrap;html=1;fillColor=#dae8fc;strokeColor=#6c8ebf;" parent="1" vertex="1">
          <mxGeometry x="680" y="980" width="110" height="30" as="geometry" />
        </mxCell>
        <mxCell id="fRRCHO6zsXlQDFJkpmqz-13" value="&lt;div style=&quot;text-align: left;&quot;&gt;&lt;span style=&quot;box-sizing: inherit; color: rgba(0, 0, 0, 0.85); font-family: &amp;quot;YS Text&amp;quot;, sans-serif; white-space-collapse: preserve-breaks;&quot;&gt;&lt;font style=&quot;font-size: 16px;&quot;&gt;Интернет-банк&lt;/font&gt;&lt;/span&gt;&lt;/div&gt;" style="rounded=1;whiteSpace=wrap;html=1;fillColor=#e1d5e7;strokeColor=#9673a6;" parent="1" vertex="1">
          <mxGeometry x="670" y="1060" width="120" height="30" as="geometry" />
        </mxCell>
        <mxCell id="fRRCHO6zsXlQDFJkpmqz-16" value="" style="endArrow=classic;html=1;rounded=0;entryX=0;entryY=0.5;entryDx=0;entryDy=0;exitX=1.043;exitY=0.52;exitDx=0;exitDy=0;exitPerimeter=0;" parent="1" target="fRRCHO6zsXlQDFJkpmqz-7" edge="1" source="fRRCHO6zsXlQDFJkpmqz-3">
          <mxGeometry width="50" height="50" relative="1" as="geometry">
            <mxPoint x="270" y="430" as="sourcePoint" />
            <mxPoint x="220" y="310" as="targetPoint" />
          </mxGeometry>
        </mxCell>
        <mxCell id="fRRCHO6zsXlQDFJkpmqz-17" value="Заведение обращения&lt;div&gt;&amp;nbsp;в системе&lt;/div&gt;" style="edgeLabel;html=1;align=center;verticalAlign=middle;resizable=0;points=[];" parent="fRRCHO6zsXlQDFJkpmqz-16" vertex="1" connectable="0">
          <mxGeometry x="-0.2526" y="4" relative="1" as="geometry">
            <mxPoint x="21" y="3" as="offset" />
          </mxGeometry>
        </mxCell>
        <mxCell id="fRRCHO6zsXlQDFJkpmqz-18" value="" style="endArrow=classic;html=1;rounded=0;exitX=1;exitY=0.5;exitDx=0;exitDy=0;entryX=0;entryY=0.035;entryDx=0;entryDy=0;entryPerimeter=0;" parent="1" source="fRRCHO6zsXlQDFJkpmqz-7" target="fRRCHO6zsXlQDFJkpmqz-8" edge="1">
          <mxGeometry width="50" height="50" relative="1" as="geometry">
            <mxPoint x="400" y="660" as="sourcePoint" />
            <mxPoint x="780" y="120" as="targetPoint" />
          </mxGeometry>
        </mxCell>
        <mxCell id="fRRCHO6zsXlQDFJkpmqz-21" value="" style="endArrow=classic;html=1;rounded=0;entryX=0.005;entryY=0.531;entryDx=0;entryDy=0;entryPerimeter=0;" parent="1" target="fRRCHO6zsXlQDFJkpmqz-8" edge="1">
          <mxGeometry width="50" height="50" relative="1" as="geometry">
            <mxPoint x="470" y="501" as="sourcePoint" />
            <mxPoint x="780" y="495" as="targetPoint" />
          </mxGeometry>
        </mxCell>
        <mxCell id="PRZFH6q77nMOEK6J_11t-11" value="обрабатка заявок&lt;div&gt;&amp;nbsp;из кол-центра&lt;/div&gt;" style="edgeLabel;html=1;align=center;verticalAlign=middle;resizable=0;points=[];" vertex="1" connectable="0" parent="fRRCHO6zsXlQDFJkpmqz-21">
          <mxGeometry x="-0.2033" y="1" relative="1" as="geometry">
            <mxPoint as="offset" />
          </mxGeometry>
        </mxCell>
        <mxCell id="fRRCHO6zsXlQDFJkpmqz-23" value="" style="endArrow=classic;html=1;rounded=0;exitX=1.005;exitY=0.522;exitDx=0;exitDy=0;exitPerimeter=0;entryX=0;entryY=0.5;entryDx=0;entryDy=0;" parent="1" source="fRRCHO6zsXlQDFJkpmqz-8" target="fRRCHO6zsXlQDFJkpmqz-9" edge="1">
          <mxGeometry width="50" height="50" relative="1" as="geometry">
            <mxPoint x="400" y="660" as="sourcePoint" />
            <mxPoint x="450" y="610" as="targetPoint" />
          </mxGeometry>
        </mxCell>
        <mxCell id="fRRCHO6zsXlQDFJkpmqz-24" value="оповещение клиенту о том,&amp;nbsp;&lt;div&gt;что он может получить депозит&amp;nbsp;&lt;/div&gt;&lt;div&gt;под указанную ставку&lt;/div&gt;" style="edgeLabel;html=1;align=center;verticalAlign=middle;resizable=0;points=[];" parent="fRRCHO6zsXlQDFJkpmqz-23" vertex="1" connectable="0">
          <mxGeometry x="-0.1005" y="1" relative="1" as="geometry">
            <mxPoint as="offset" />
          </mxGeometry>
        </mxCell>
        <mxCell id="fRRCHO6zsXlQDFJkpmqz-25" value="&lt;div style=&quot;text-align: left;&quot;&gt;&lt;font style=&quot;font-size: 16px;&quot;&gt;Email&amp;nbsp;&lt;/font&gt;&lt;/div&gt;" style="rounded=1;whiteSpace=wrap;html=1;fillColor=#fff2cc;strokeColor=#d6b656;" parent="1" vertex="1">
          <mxGeometry x="190" y="220" width="80" height="30" as="geometry" />
        </mxCell>
        <mxCell id="PRZFH6q77nMOEK6J_11t-1" value="" style="endArrow=classic;html=1;rounded=0;entryX=0;entryY=0.5;entryDx=0;entryDy=0;" edge="1" parent="1" source="fRRCHO6zsXlQDFJkpmqz-4" target="fRRCHO6zsXlQDFJkpmqz-13">
          <mxGeometry width="50" height="50" relative="1" as="geometry">
            <mxPoint x="344" y="980" as="sourcePoint" />
            <mxPoint x="490" y="875" as="targetPoint" />
            <Array as="points">
              <mxPoint x="344" y="1080" />
            </Array>
          </mxGeometry>
        </mxCell>
        <mxCell id="PRZFH6q77nMOEK6J_11t-5" value="&lt;font&gt;проведение платежей;&lt;/font&gt;&lt;div&gt;&lt;font&gt;&amp;nbsp;открытие текущих&amp;nbsp;&lt;/font&gt;&lt;/div&gt;&lt;div&gt;&lt;font&gt;счетов (дебетовых карт)&lt;/font&gt;&lt;/div&gt;" style="edgeLabel;html=1;align=center;verticalAlign=middle;resizable=0;points=[];" vertex="1" connectable="0" parent="PRZFH6q77nMOEK6J_11t-1">
          <mxGeometry x="0.0499" y="1" relative="1" as="geometry">
            <mxPoint as="offset" />
          </mxGeometry>
        </mxCell>
        <mxCell id="PRZFH6q77nMOEK6J_11t-2" value="" style="endArrow=classic;html=1;rounded=0;entryX=0;entryY=0.5;entryDx=0;entryDy=0;" edge="1" parent="1" source="fRRCHO6zsXlQDFJkpmqz-4" target="fRRCHO6zsXlQDFJkpmqz-12">
          <mxGeometry width="50" height="50" relative="1" as="geometry">
            <mxPoint x="350" y="920" as="sourcePoint" />
            <mxPoint x="400" y="870" as="targetPoint" />
          </mxGeometry>
        </mxCell>
        <mxCell id="PRZFH6q77nMOEK6J_11t-4" value="&lt;font&gt;просмотр маркетинговой&lt;/font&gt;&lt;div style=&quot;&quot;&gt;&lt;font&gt;&amp;nbsp;информации&lt;/font&gt;&lt;/div&gt;" style="edgeLabel;html=1;align=center;verticalAlign=middle;resizable=0;points=[];" vertex="1" connectable="0" parent="PRZFH6q77nMOEK6J_11t-2">
          <mxGeometry x="-0.0516" relative="1" as="geometry">
            <mxPoint as="offset" />
          </mxGeometry>
        </mxCell>
        <mxCell id="PRZFH6q77nMOEK6J_11t-6" value="" style="endArrow=classic;html=1;rounded=0;entryX=0.5;entryY=1;entryDx=0;entryDy=0;exitX=1;exitY=0.5;exitDx=0;exitDy=0;" edge="1" parent="1" source="fRRCHO6zsXlQDFJkpmqz-13" target="fRRCHO6zsXlQDFJkpmqz-8">
          <mxGeometry width="50" height="50" relative="1" as="geometry">
            <mxPoint x="790" y="995" as="sourcePoint" />
            <mxPoint x="840" y="945" as="targetPoint" />
            <Array as="points">
              <mxPoint x="875" y="1075" />
            </Array>
          </mxGeometry>
        </mxCell>
        <mxCell id="PRZFH6q77nMOEK6J_11t-8" value="" style="endArrow=classic;html=1;rounded=0;entryX=0.005;entryY=0.141;entryDx=0;entryDy=0;entryPerimeter=0;" edge="1" parent="1" source="fRRCHO6zsXlQDFJkpmqz-6" target="fRRCHO6zsXlQDFJkpmqz-8">
          <mxGeometry width="50" height="50" relative="1" as="geometry">
            <mxPoint x="461.05" y="236.04866208510015" as="sourcePoint" />
            <mxPoint x="770" y="170" as="targetPoint" />
            <Array as="points">
              <mxPoint x="440" y="170" />
            </Array>
          </mxGeometry>
        </mxCell>
        <mxCell id="PRZFH6q77nMOEK6J_11t-10" value="учёт операций по счетам&amp;nbsp;&lt;div&gt;и бухгалтерия;&lt;/div&gt;&lt;div&gt;загрузка документов;&lt;/div&gt;&lt;div&gt;создание депозитов&lt;/div&gt;&lt;div&gt;&lt;br&gt;&lt;/div&gt;" style="edgeLabel;html=1;align=center;verticalAlign=middle;resizable=0;points=[];" vertex="1" connectable="0" parent="PRZFH6q77nMOEK6J_11t-8">
          <mxGeometry x="-0.0772" y="1" relative="1" as="geometry">
            <mxPoint x="11" y="7" as="offset" />
          </mxGeometry>
        </mxCell>
        <mxCell id="PRZFH6q77nMOEK6J_11t-12" value="" style="endArrow=classic;html=1;rounded=0;exitX=0.5;exitY=1;exitDx=0;exitDy=0;" edge="1" parent="1" source="fRRCHO6zsXlQDFJkpmqz-11" target="fRRCHO6zsXlQDFJkpmqz-5">
          <mxGeometry width="50" height="50" relative="1" as="geometry">
            <mxPoint x="580" y="580" as="sourcePoint" />
            <mxPoint x="439" y="660" as="targetPoint" />
          </mxGeometry>
        </mxCell>
        <mxCell id="PRZFH6q77nMOEK6J_11t-13" value="" style="endArrow=classic;html=1;rounded=0;entryX=0.5;entryY=0;entryDx=0;entryDy=0;" edge="1" parent="1" target="fRRCHO6zsXlQDFJkpmqz-11">
          <mxGeometry width="50" height="50" relative="1" as="geometry">
            <mxPoint x="440" y="270" as="sourcePoint" />
            <mxPoint x="630" y="530" as="targetPoint" />
          </mxGeometry>
        </mxCell>
        <mxCell id="PRZFH6q77nMOEK6J_11t-14" value="&lt;font&gt;запрос ставки&lt;/font&gt;&lt;div&gt;&lt;font&gt;депозита&lt;/font&gt;&lt;/div&gt;&lt;div&gt;&lt;font&gt;для клиента&lt;/font&gt;&lt;/div&gt;" style="edgeLabel;html=1;align=center;verticalAlign=middle;resizable=0;points=[];" vertex="1" connectable="0" parent="PRZFH6q77nMOEK6J_11t-13">
          <mxGeometry x="-0.1875" y="-1" relative="1" as="geometry">
            <mxPoint y="9" as="offset" />
          </mxGeometry>
        </mxCell>
        <mxCell id="fRRCHO6zsXlQDFJkpmqz-4" value="Клиент банка&lt;div&gt;&lt;br&gt;&lt;/div&gt;" style="sketch=0;pointerEvents=1;shadow=0;dashed=0;html=1;strokeColor=none;fillColor=#505050;labelPosition=center;verticalLabelPosition=bottom;verticalAlign=top;outlineConnect=0;align=center;shape=mxgraph.office.users.user;" parent="1" vertex="1">
          <mxGeometry x="330" y="980" width="32" height="35" as="geometry" />
        </mxCell>
        <mxCell id="PRZFH6q77nMOEK6J_11t-18" value="" style="endArrow=classic;html=1;rounded=0;" edge="1" parent="1" source="PRZFH6q77nMOEK6J_11t-23" target="fRRCHO6zsXlQDFJkpmqz-2">
          <mxGeometry width="50" height="50" relative="1" as="geometry">
            <mxPoint x="580" y="920" as="sourcePoint" />
            <mxPoint x="630" y="870" as="targetPoint" />
          </mxGeometry>
        </mxCell>
        <mxCell id="PRZFH6q77nMOEK6J_11t-24" value="" style="endArrow=classic;html=1;rounded=0;" edge="1" parent="1" source="fRRCHO6zsXlQDFJkpmqz-5" target="PRZFH6q77nMOEK6J_11t-23">
          <mxGeometry width="50" height="50" relative="1" as="geometry">
            <mxPoint x="439" y="520" as="sourcePoint" />
            <mxPoint x="439" y="690" as="targetPoint" />
          </mxGeometry>
        </mxCell>
        <mxCell id="PRZFH6q77nMOEK6J_11t-25" value="согласовать специальные&amp;nbsp;&lt;div&gt;ставки&lt;/div&gt;" style="edgeLabel;html=1;align=center;verticalAlign=middle;resizable=0;points=[];" vertex="1" connectable="0" parent="PRZFH6q77nMOEK6J_11t-24">
          <mxGeometry x="-0.1571" relative="1" as="geometry">
            <mxPoint y="8" as="offset" />
          </mxGeometry>
        </mxCell>
        <mxCell id="PRZFH6q77nMOEK6J_11t-23" value="&lt;div style=&quot;text-align: left;&quot;&gt;&lt;font style=&quot;font-size: 16px;&quot;&gt;Email&amp;nbsp;&lt;/font&gt;&lt;/div&gt;" style="rounded=1;whiteSpace=wrap;html=1;fillColor=#fff2cc;strokeColor=#d6b656;" vertex="1" parent="1">
          <mxGeometry x="399" y="620" width="80" height="30" as="geometry" />
        </mxCell>
        <mxCell id="PRZFH6q77nMOEK6J_11t-26" value="" style="endArrow=classic;html=1;rounded=0;entryX=0.011;entryY=0.782;entryDx=0;entryDy=0;entryPerimeter=0;" edge="1" parent="1" source="fRRCHO6zsXlQDFJkpmqz-2" target="fRRCHO6zsXlQDFJkpmqz-8">
          <mxGeometry width="50" height="50" relative="1" as="geometry">
            <mxPoint x="860" y="680" as="sourcePoint" />
            <mxPoint x="910" y="630" as="targetPoint" />
          </mxGeometry>
        </mxCell>
        <mxCell id="PRZFH6q77nMOEK6J_11t-27" value="анализирует текущий уровень&amp;nbsp;&lt;div&gt;кредитного риска для банка&lt;/div&gt;&lt;div&gt;для клиента&lt;/div&gt;" style="edgeLabel;html=1;align=center;verticalAlign=middle;resizable=0;points=[];" vertex="1" connectable="0" parent="PRZFH6q77nMOEK6J_11t-26">
          <mxGeometry x="-0.2325" y="2" relative="1" as="geometry">
            <mxPoint x="26" y="4" as="offset" />
          </mxGeometry>
        </mxCell>
        <mxCell id="PRZFH6q77nMOEK6J_11t-28" value="&lt;div style=&quot;text-align: left;&quot;&gt;&lt;font style=&quot;font-size: 16px;&quot;&gt;Email&amp;nbsp;&lt;/font&gt;&lt;/div&gt;" style="rounded=1;whiteSpace=wrap;html=1;fillColor=#fff2cc;strokeColor=#d6b656;" vertex="1" parent="1">
          <mxGeometry x="240" y="590" width="80" height="30" as="geometry" />
        </mxCell>
        <mxCell id="PRZFH6q77nMOEK6J_11t-29" value="&lt;div style=&quot;text-align: left;&quot;&gt;&lt;font style=&quot;font-size: 16px;&quot;&gt;Excel&lt;/font&gt;&lt;/div&gt;" style="rounded=1;whiteSpace=wrap;html=1;fillColor=#fff2cc;strokeColor=#d6b656;" vertex="1" parent="1">
          <mxGeometry x="190" y="300" width="70" height="30" as="geometry" />
        </mxCell>
        <mxCell id="PRZFH6q77nMOEK6J_11t-30" value="" style="endArrow=classic;html=1;rounded=0;entryX=0.5;entryY=1;entryDx=0;entryDy=0;" edge="1" parent="1" source="fRRCHO6zsXlQDFJkpmqz-2" target="PRZFH6q77nMOEK6J_11t-28">
          <mxGeometry width="50" height="50" relative="1" as="geometry">
            <mxPoint x="860" y="680" as="sourcePoint" />
            <mxPoint x="910" y="630" as="targetPoint" />
            <Array as="points">
              <mxPoint x="280" y="715" />
            </Array>
          </mxGeometry>
        </mxCell>
        <mxCell id="PRZFH6q77nMOEK6J_11t-31" value="ответ на&lt;div&gt;согласование&amp;nbsp;&lt;/div&gt;&lt;div&gt;специальной ставки&lt;/div&gt;" style="edgeLabel;html=1;align=center;verticalAlign=middle;resizable=0;points=[];" vertex="1" connectable="0" parent="PRZFH6q77nMOEK6J_11t-30">
          <mxGeometry x="0.6617" relative="1" as="geometry">
            <mxPoint as="offset" />
          </mxGeometry>
        </mxCell>
        <mxCell id="PRZFH6q77nMOEK6J_11t-32" value="" style="endArrow=classic;html=1;rounded=0;exitX=0.5;exitY=0;exitDx=0;exitDy=0;" edge="1" parent="1" source="PRZFH6q77nMOEK6J_11t-28">
          <mxGeometry width="50" height="50" relative="1" as="geometry">
            <mxPoint x="860" y="680" as="sourcePoint" />
            <mxPoint x="410" y="510" as="targetPoint" />
            <Array as="points">
              <mxPoint x="280" y="510" />
            </Array>
          </mxGeometry>
        </mxCell>
        <mxCell id="PRZFH6q77nMOEK6J_11t-33" value="" style="endArrow=classic;html=1;rounded=0;entryX=0.5;entryY=1;entryDx=0;entryDy=0;" edge="1" parent="1" source="fRRCHO6zsXlQDFJkpmqz-5" target="PRZFH6q77nMOEK6J_11t-29">
          <mxGeometry width="50" height="50" relative="1" as="geometry">
            <mxPoint x="416" y="480" as="sourcePoint" />
            <mxPoint x="160" y="425" as="targetPoint" />
            <Array as="points">
              <mxPoint x="225" y="495" />
            </Array>
          </mxGeometry>
        </mxCell>
        <mxCell id="PRZFH6q77nMOEK6J_11t-37" value="вычисление&lt;div&gt;&amp;nbsp;основной ставки&lt;/div&gt;" style="edgeLabel;html=1;align=center;verticalAlign=middle;resizable=0;points=[];" vertex="1" connectable="0" parent="PRZFH6q77nMOEK6J_11t-33">
          <mxGeometry x="0.6549" y="2" relative="1" as="geometry">
            <mxPoint x="7" y="14" as="offset" />
          </mxGeometry>
        </mxCell>
        <mxCell id="PRZFH6q77nMOEK6J_11t-38" value="" style="endArrow=classic;html=1;rounded=0;entryX=0.425;entryY=1.033;entryDx=0;entryDy=0;entryPerimeter=0;exitX=0.5;exitY=0;exitDx=0;exitDy=0;" edge="1" parent="1" source="PRZFH6q77nMOEK6J_11t-29" target="fRRCHO6zsXlQDFJkpmqz-25">
          <mxGeometry width="50" height="50" relative="1" as="geometry">
            <mxPoint x="720" y="670" as="sourcePoint" />
            <mxPoint x="910" y="630" as="targetPoint" />
          </mxGeometry>
        </mxCell>
        <mxCell id="PRZFH6q77nMOEK6J_11t-39" value="" style="endArrow=classic;html=1;rounded=0;exitX=1;exitY=0.5;exitDx=0;exitDy=0;" edge="1" parent="1" source="fRRCHO6zsXlQDFJkpmqz-25" target="fRRCHO6zsXlQDFJkpmqz-6">
          <mxGeometry width="50" height="50" relative="1" as="geometry">
            <mxPoint x="125.5" y="360" as="sourcePoint" />
            <mxPoint x="124.5" y="271" as="targetPoint" />
          </mxGeometry>
        </mxCell>
        <mxCell id="PRZFH6q77nMOEK6J_11t-40" value="" style="endArrow=classic;html=1;rounded=0;entryX=0.5;entryY=0;entryDx=0;entryDy=0;" edge="1" parent="1" target="PRZFH6q77nMOEK6J_11t-41">
          <mxGeometry width="50" height="50" relative="1" as="geometry">
            <mxPoint x="462" y="240" as="sourcePoint" />
            <mxPoint x="640" y="240" as="targetPoint" />
            <Array as="points">
              <mxPoint x="595" y="240" />
            </Array>
          </mxGeometry>
        </mxCell>
        <mxCell id="PRZFH6q77nMOEK6J_11t-42" value="итоговая ставка по&lt;div&gt;депозитам&lt;/div&gt;&lt;div&gt;(обновляется раз в день)&lt;/div&gt;" style="edgeLabel;html=1;align=center;verticalAlign=middle;resizable=0;points=[];" vertex="1" connectable="0" parent="PRZFH6q77nMOEK6J_11t-40">
          <mxGeometry x="0.6393" y="3" relative="1" as="geometry">
            <mxPoint as="offset" />
          </mxGeometry>
        </mxCell>
        <mxCell id="PRZFH6q77nMOEK6J_11t-41" value="&lt;div style=&quot;text-align: left;&quot;&gt;&lt;font style=&quot;font-size: 16px;&quot;&gt;Excel&lt;/font&gt;&lt;/div&gt;" style="rounded=1;whiteSpace=wrap;html=1;fillColor=#fff2cc;strokeColor=#d6b656;" vertex="1" parent="1">
          <mxGeometry x="560" y="310" width="70" height="30" as="geometry" />
        </mxCell>
        <mxCell id="PRZFH6q77nMOEK6J_11t-43" value="&lt;div style=&quot;text-align: left;&quot;&gt;&lt;font style=&quot;font-size: 16px;&quot;&gt;Email&amp;nbsp;&lt;/font&gt;&lt;/div&gt;" style="rounded=1;whiteSpace=wrap;html=1;fillColor=#fff2cc;strokeColor=#d6b656;" vertex="1" parent="1">
          <mxGeometry x="560" y="370" width="80" height="30" as="geometry" />
        </mxCell>
        <mxCell id="PRZFH6q77nMOEK6J_11t-44" value="" style="endArrow=classic;html=1;rounded=0;exitX=0.5;exitY=1;exitDx=0;exitDy=0;entryX=0.425;entryY=0.033;entryDx=0;entryDy=0;entryPerimeter=0;" edge="1" parent="1" source="PRZFH6q77nMOEK6J_11t-41" target="PRZFH6q77nMOEK6J_11t-43">
          <mxGeometry width="50" height="50" relative="1" as="geometry">
            <mxPoint x="860" y="680" as="sourcePoint" />
            <mxPoint x="910" y="630" as="targetPoint" />
          </mxGeometry>
        </mxCell>
        <mxCell id="PRZFH6q77nMOEK6J_11t-45" value="" style="endArrow=classic;html=1;rounded=0;exitX=0.5;exitY=1;exitDx=0;exitDy=0;" edge="1" parent="1" source="PRZFH6q77nMOEK6J_11t-43">
          <mxGeometry width="50" height="50" relative="1" as="geometry">
            <mxPoint x="860" y="680" as="sourcePoint" />
            <mxPoint x="470" y="480" as="targetPoint" />
            <Array as="points">
              <mxPoint x="600" y="480" />
            </Array>
          </mxGeometry>
        </mxCell>
      </root>
    </mxGraphModel>
  </diagram>
</mxfile>
